<svg xmlns="http://www.w3.org/2000/svg" version="1.0" viewBox="0 0 512 512" fill="inherit"><path d="M338.5 104.9c-8.8 4-14.3 13.7-12.9 22.9.9 6 5.9 13.1 11.4 16 6.3 3.3 15.9 2.9 21.8-1.1 9.7-6.4 12.7-19.5 6.7-29.2-5.6-9.1-17.6-12.9-27-8.6zM296 134.7c-12.6 2.1-26.2 7-37.4 13.5-17.3 10.1-20.8 18.3-13.8 32.6 2 4.1 5.2 7.5 15.1 16 6.8 5.9 13.1 11.1 13.8 11.7 1 .8-1.5 5.8-11.2 22.9-13.4 23.5-14 25.6-10.5 31.4 4.4 7.2 14.3 7.7 19.4.9 1.3-1.8 8.7-14.4 16.5-28.2 14.8-26.1 15.7-28.6 12.7-34.3-.8-1.5-6.7-7.2-13.1-12.6l-11.6-9.9 2.9-1.3c1.6-.6 6.8-2.4 11.6-4l8.6-2.8v-9.4c0-10.4 1.3-14.1 5.5-16 4.2-1.9 7.4-1.4 10.6 1.7 2.7 2.7 2.9 3.5 2.9 10.3l.1 7.3 3.9-4.2c3.3-3.5 4-4.9 4-8.2 0-5.2-1.1-7.9-4.6-11.5-5.7-5.7-14.4-7.7-25.4-5.9z"/><path d="M303.5 148.5c-2.3 2.2-2.5 3.1-2.5 12.8 0 17 3.6 31.6 11.5 47.2 5.7 11.1 8.8 14.5 13 14.5 3.5 0 7.5-3.5 7.5-6.6 0-1-2.7-7.3-6-13.9-7.5-14.9-10-24.3-10.7-40.3-.5-11.6-.7-12.4-3.1-14.2-3.3-2.7-6.8-2.5-9.7.5z"/><path d="M406.4 148.4c-1 .8-1.7 1.6-1.4 1.9.3.2 3.4 2.4 7 4.8l6.5 4.4-10.5.6c-7.7.4-19.5 2.5-44 7.8-18.4 4-34.4 7.9-35.5 8.6-1.1.8-3.3 2.5-4.9 3.8l-3 2.4 2.8 7.5c1.5 4.1 4.7 10.9 7.1 15.1 2.5 4.2 4.5 8.8 4.5 10.2 0 2.2.9 3 5.3 4.9 11.1 5 35.8 11.5 55.5 14.7 5.8 1 7.2 1.5 7.2 3 0 1 .8 2 1.8 2.3 2.2.7 38.4 5.3 48.2 6.1 4.1.3 8.5.8 9.8 1.1 1.7.3 2.2 0 2.2-1.5 0-2.3-.6-2.4-18-4.1-12.2-1.2-40.3-4.9-40.8-5.4-.1-.2 5-2.2 11.4-4.5l11.8-4.1 15.5 5.1c11.1 3.7 16.5 6 18.6 8 2.7 2.5 3.9 2.9 12.5 3.4 5.2.3 10.5.8 11.7 1.1 1.6.3 4.1-1.3 9.2-5.7 3.9-3.4 7.1-6.6 7.1-7.1s-3.8-6.8-8.5-13.9c-6-9.1-9-14.9-10.2-19.2-2.6-9.5-17.7-30.6-26.4-36.8-2-1.4-6.1-2.6-11.9-3.5-7.1-1-10-2-14.4-4.8-9.7-6.2-13.2-7.6-18.9-7.6-3 0-6.2.6-7.3 1.4zm63.1 49.7c3 2.3 5.5 4.5 5.5 4.9 0 1-4.7 3-7 3s-6.8-3.9-7.1-6c-.1-.8-.1-2.8 0-4.4.1-3.5 1.1-3.2 8.6 2.5z"/><path d="M147.7 185.4c-2.1.8-5.6 2.6-7.7 4l-4 2.6-12.2-2.5c-6.8-1.4-16.6-2.8-21.8-3.2-11.3-.7-14.4.1-42 10.2l-18.5 6.8-18 .8c-17.3.7-23.5 1.7-23.5 3.8 0 1.9 9.5 8.3 19.5 13.2 14 6.9 25.8 10.1 37 10.2 8.5.1 9.5-.1 18-4 5-2.2 11.9-5 15.5-6.2 5.6-1.8 27.2-7.1 29.2-7.1.4 0 .4 2.4.1 5.3-.7 6.8 1.6 15.7 6.7 26.4 2.1 4.6 4.4 10.8 4.9 14 1.3 6.5 1.4 19.2.3 20.9-.4.7-4.2 1.5-8.4 1.9-5.2.5-9.7 1.6-13.5 3.5-6.8 3.2-24.3 16.2-43.7 32.4L51.7 330H35v17.5c0 9.6.4 17.5.8 17.5 1.7 0 10.3-6.3 12.1-8.8 1-1.5 3-5.3 4.5-8.4 4.3-9 14.1-16.3 34.6-25.4 7.2-3.1 11.8-4.5 16.7-4.9l6.8-.6-5.2 4.8c-4.9 4.5-5.6 5.7-10.3 18.7-3.9 10.7-7.1 17.2-14.2 28.8l-9.1 15-7.8-.7c-7-.6-8.2-.5-11.4 1.5l-3.5 2.2v8.4c0 7.9.1 8.4 2.1 8.4 4 0 20.4-6.1 25.7-9.6 6.4-4.2 13.4-13.5 19.9-26.1 3.7-7.4 5.9-10.3 10.7-14.5 3.4-2.9 13.8-14.4 23.3-25.6l17.2-20.4 12 .1c21.3.3 30.3-2.7 43.3-14.8l7-6.5 7.7 4.2c27.8 15.4 56.6 28.5 70 31.7 6.4 1.6 8.2 1.7 15.6.6 4.6-.7 13.5-3.1 19.7-5.2 16.6-5.8 14.9-5.8 19.1.3 2 2.9 8.8 17 15.3 31.3 11.1 24.8 11.7 26.6 14 39.1 1.2 7.3 3 14.8 3.8 16.8l1.5 3.5 4.3-1.3c15.7-4.8 24.8-8 24.8-8.6 0-.3-1.7-3.1-3.7-6-3.5-4.9-4.4-5.5-10.2-7.1-3.5-1-6.5-1.9-6.6-2.1-.9-1.1-20.1-68.4-19.6-68.6 1-.3 34.8 11.2 41.4 14.2 5 2.2 14.1 9.8 36.3 30.3l9.1 8.4 3.3 10.6 3.3 10.5 10.6-.7c5.8-.4 10.7-.8 10.8-.9.2-.2-1.4-4.1-3.5-8.8-3.3-7.6-4.6-9.3-12.4-16.4-4.7-4.3-13.7-13.7-20-20.9-23.2-26.7-27.5-30.4-54.5-47.5-5.7-3.6-10.2-7.2-10.2-8 0-.8 1.9-10.9 4.2-22.4l4.2-20.9 4.4-1.7 4.3-1.7-9.3-1.7c-14.7-2.8-34.5-8-45.2-12-9-3.4-9.9-3.6-11.9-2.1-1.3.8-3.8 1.5-5.7 1.5-4.8 0-9.1-4.9-15.3-17.9-6.1-12.5-5.6-11.7-7-10.3-.8.8-.8 1.8.1 4 1.6 3.9-.1 29.7-2.5 36.9-3 9.3-10.8 16.3-18.1 16.3-2.4 0-3.4 1-6.6 6.5-4.1 7.1-7.9 9.8-13.7 9.8-8.4 0-13.5-5.5-13.5-14.7v-5.9l-6.5-2.2c-21.1-7.2-37.2-19.3-40.1-29.8-2-7.4.2-13.7 7.3-21.3 4.6-4.9 5.8-6.8 5-7.6-2.4-2.4-16.2-3.9-39.2-4.4-18.8-.4-24.3-.2-27.3 1z"/><path d="M293.5 188.8c-1.9.7-1.8.9 1.4 3.7l3.5 3-.7-2.5c-.4-1.4-.7-3.1-.7-3.8 0-1.3-.4-1.3-3.5-.4zM217.6 192.7c-.4 1.1-2.4 3.4-4.5 5.1-4.3 3.5-8.1 10.3-8.1 14.7 0 7.5 7.6 16.4 20 23.3 6.9 3.9 22.4 10.1 25.2 10.2 1.1 0 4.9-5.7 11.8-17.7 5.5-9.7 9.9-17.9 9.8-18.3-.2-.4-4.8-4.6-10.3-9.3l-10-8.6-12.1-.1c-6.7 0-14.2-.3-16.7-.6-3.9-.6-4.6-.4-5.1 1.3zM292.1 232.1c-3.6 6.3-7.3 12.9-8.4 14.6-1.9 3.3-1.9 3.3.1 3.3 2.8 0 8.3-4 10.4-7.5 2.3-4.1 5-14.8 4.6-18.6-.3-2.8-.9-2-6.7 8.2zM493.8 247.5 482 257.9l3.4 2.6c1.8 1.4 4 2.5 5 2.5 5 0 21.6-12.1 21.6-15.8 0-1.8-4.8-10.2-5.8-10.2-.4.1-6 4.8-12.4 10.5zM475.2 251.5l3.6 3.8 3.1-2.4c1.6-1.3 3-2.7 3-3.2.1-.4-1.8-.7-4.1-.7-2.4 0-5.4-.3-6.8-.6-2.3-.6-2.3-.4 1.2 3.1z"/></svg>