<svg width="330" height="120" viewBox="0 0 330 120" fill="#f3f3f3" xmlns="http://www.w3.org/2000/svg">
<path d="M96.0166 0.443519C96.6392 0.127116 97.3783 -0.854737 97.0869 1.77067C96.7953 4.39706 93.3699 9.30006 93.8369 12.1466C94.304 14.9932 97.5729 19.1048 100.686 24.3234C106.135 34.7609 104.349 34.603 106.02 37.924C108.568 42.9845 112.723 45.4358 115.477 49.9425C118.279 54.5287 120.147 57.0594 119.991 61.3293C119.89 64.0893 116.878 70.5011 107.848 70.5011C101.465 70.5011 99.4352 67.6225 95.4687 64.1593C92.953 61.3181 85.1189 55.6359 73.9101 55.6359C71.1079 55.6359 71.5746 55.9523 68.7724 55.9523C65.9701 55.9521 59.8687 52.3452 63.8535 39.4416C58.6534 51.0497 59.2484 63.6977 64.1025 72.3996C68.6171 81.8878 71.7306 83.6276 75.4668 89.9533C80.1365 97.8594 83.5613 105.924 83.2509 106.716C82.9396 107.507 23.3152 108.456 9.14841 66.8644C9.97885 74.6663 17.8663 92.8 42.7744 102.921C64.1022 112.093 79.0478 111.144 79.8261 111.46C80.6045 111.777 81.6941 113.359 81.3828 115.572C81.0714 117.786 81.071 120 70.9521 120C55.7995 119.789 22.6924 113.674 8.37009 89.0041C-8.86568 59.3152 15.3104 37.1021 24.7763 33.3713C16.8929 36.0374 2.44964 40.7117 0.426728 40.5314C-1.12548 40.5307 1.98636 36.9761 2.92087 36.1847C3.85493 35.394 11.6391 25.5884 53.205 16.0998C41.2182 15.7835 35.3025 16.1001 30.4765 16.8908C30.7881 13.7279 39.5063 8.03489 71.4199 9.45817C75.7788 4.71407 78.892 4.39731 81.3828 3.6066C83.8737 2.81589 89.3223 1.70896 90.4121 1.23453C91.5018 0.76013 91.6578 0.91866 89.167 7.2443C92.5918 3.60703 95.3939 0.759804 96.0166 0.443519ZM87.4541 20.5285C86.4681 22.2154 84.9846 26.4431 86.9384 29.8576C89.3808 34.1257 93.526 33.8128 97.4179 34.2873C95.2385 32.864 93.2144 30.8078 91.5019 28.2775C90.1014 26.2081 88.2325 22.2681 87.4541 20.5285Z"/>
<path d="M203.295 18.0002C208.881 18.0002 213.152 19.7105 216.108 23.131C219.083 26.5317 219.903 31.9975 218.568 39.5275L218.143 41.8957C216.827 49.4257 214.084 54.9015 209.914 58.3224C205.744 61.7231 200.865 63.423 195.278 63.423C189.732 63.4229 185.472 61.7229 182.496 58.3224C179.521 54.9015 178.7 49.4257 180.036 41.8957L180.462 39.5275C181.778 31.9975 184.521 26.5317 188.691 23.131C192.881 19.7104 197.749 18.0002 203.295 18.0002ZM279.051 18.0305C283.868 18.0305 287.592 19.0527 290.224 21.0969C292.875 23.1413 293.867 26.0667 293.199 29.8723L292.805 32.0275H281.115L281.297 31.0256C281.54 29.6898 281.358 28.6576 280.751 27.9289C280.144 27.18 279.162 26.8059 277.806 26.8058C276.429 26.8058 275.346 27.1188 274.557 27.7463C273.767 28.3535 273.272 29.1739 273.069 30.2062C272.887 31.1171 273.251 31.9265 274.162 32.6349C275.093 33.3434 277.168 34.1939 280.387 35.1857C284.536 36.5014 287.461 38.2827 289.161 40.5295C290.882 42.7763 291.398 45.7922 290.71 49.5773C289.941 54.0304 287.815 57.4515 284.334 59.84C280.852 62.2286 276.621 63.423 271.642 63.423C266.703 63.423 262.796 62.3809 259.922 60.2961C257.068 58.2112 255.995 55.1342 256.703 51.0656L257.19 48.3937H269.092L268.849 49.8205C268.525 51.5613 268.727 52.857 269.456 53.7072C270.205 54.5369 271.369 54.9523 272.947 54.9523C274.405 54.9523 275.599 54.6082 276.53 53.9201C277.462 53.2319 278.038 52.229 278.261 50.9133C278.463 49.8811 278.129 48.9702 277.259 48.1808C276.409 47.3915 274.556 46.5008 271.702 45.509C267.27 43.9504 264.152 42.0276 262.351 39.7404C260.569 37.4531 260.003 34.6289 260.651 31.2687C261.399 26.9977 263.444 23.7282 266.784 21.4611C270.144 19.174 274.234 18.0305 279.051 18.0305ZM155.807 34.4269H164.612L167.405 18.6076H180.644L172.841 62.8156H159.603L162.639 45.509H153.833L150.797 62.8156H137.528L145.331 18.6076H158.601L155.807 34.4269ZM246.107 18.6076C250.398 18.6076 253.616 19.9334 255.762 22.5851C257.907 25.2368 258.596 28.698 257.827 32.9689C257.038 37.4019 254.983 41.0354 251.663 43.8693C250.977 44.4587 250.275 44.9855 249.558 45.4523L254.305 62.8156H240.034L237.062 48.1203H233.84L231.259 62.8156H217.99L225.794 18.6076H246.107ZM328.148 29.0519H310.264L309.019 36.0353H324.353L322.774 45.0539H307.441L306.073 52.7961H324.474L322.713 62.8156H291.651L299.454 18.6076H330L328.148 29.0519ZM201.746 26.9572C200.066 26.9572 198.659 27.5951 197.526 28.8703C196.412 30.1455 195.583 32.3113 195.036 35.3674L193.123 46.1467C192.577 49.2436 192.637 51.44 193.305 52.7355C193.993 54.031 195.178 54.6788 196.858 54.6789C198.517 54.6789 199.914 54.031 201.048 52.7355C202.182 51.44 203.011 49.2437 203.537 46.1467L205.481 35.3674C206.007 32.3113 205.926 30.1455 205.238 28.8703C204.57 27.5951 203.406 26.9572 201.746 26.9572ZM235.328 39.7707H238.91C240.509 39.7707 241.724 39.2239 242.554 38.131C243.384 37.0178 243.95 35.5905 244.254 33.8498C244.578 32.0889 244.518 30.6415 244.072 29.508C243.627 28.3745 242.605 27.7969 241.006 27.7766H237.423L235.328 39.7707Z"/>
<path d="M282.933 67.9205C287.05 67.9205 290.018 68.9073 291.836 70.8805C293.654 72.8537 294.275 75.4565 293.7 78.6881L293.467 79.9694H283.982L284.099 79.317C284.363 77.8877 284.253 76.8386 283.772 76.1705C283.29 75.4872 282.459 75.1452 281.279 75.1451C280.005 75.1451 278.932 75.6429 278.062 76.6373C277.207 77.6318 276.578 79.2786 276.174 81.5778L274.799 89.3151C274.426 91.4437 274.52 93.0754 275.079 94.2096C275.639 95.3437 276.618 95.9108 278.016 95.9108C278.699 95.9107 279.313 95.8179 279.857 95.6315C280.416 95.4295 280.944 95.1184 281.442 94.6989L282.257 90.2477H278.598L279.74 83.6754L292.954 83.6285L290.461 97.8922C289.42 98.9487 287.734 100.028 285.404 101.131C283.089 102.235 280.183 102.786 276.687 102.786C272.212 102.786 268.865 101.403 266.643 98.6373C264.421 95.8562 263.791 91.7314 264.754 86.2623L265.081 84.444C266.045 78.9751 268.111 74.858 271.281 72.0924C274.466 69.3114 278.35 67.9206 282.933 67.9205ZM209.427 67.944C213.56 67.944 216.628 68.8843 218.632 70.7643C220.636 72.6288 221.281 75.5574 220.567 79.5504L220.101 82.1842H210.569L211.221 78.525C211.423 77.3287 211.291 76.412 210.824 75.775C210.358 75.1225 209.566 74.7955 208.448 74.7955C207.205 74.7956 206.149 75.3085 205.279 76.3336C204.424 77.3435 203.794 78.9674 203.39 81.2047L201.922 89.5016C201.518 91.8166 201.573 93.4948 202.085 94.5358C202.613 95.5612 203.499 96.0739 204.742 96.0739C205.861 96.0738 206.762 95.7162 207.446 95.0016C208.145 94.2713 208.642 93.0829 208.937 91.4362L209.427 88.6862H218.958L218.4 91.8092C217.794 95.2895 216.162 97.9851 213.505 99.8961C210.848 101.807 207.446 102.762 203.297 102.762C198.807 102.762 195.482 101.465 193.323 98.8707C191.163 96.276 190.596 92.0732 191.621 86.2623L191.948 84.444C192.988 78.5248 195.078 74.2988 198.216 71.7662C201.355 69.2181 205.092 67.944 209.427 67.944ZM151.581 68.3864C154.875 68.3864 157.345 69.4047 158.992 71.4401C160.639 73.4754 161.168 76.1324 160.577 79.4108C159.971 82.8132 158.394 85.6019 155.846 87.777C155.319 88.2291 154.78 88.6317 154.23 88.9899L157.733 101.802L174.211 68.3864H185.352L189.733 102.32H179.828L179.267 96.61H169.796L167.336 102.32H146.92L144.639 91.0397H142.166L140.185 102.32H130L135.99 68.3864H151.581ZM229.492 102.32H219.168L225.158 68.3864H235.483L229.492 102.32ZM252.776 83.9088C252.869 84.4214 252.954 84.9887 253.031 85.61C253.109 86.2158 253.164 86.7751 253.195 87.2877H253.334C253.396 86.7596 253.482 86.2082 253.591 85.6334C253.7 85.043 253.801 84.483 253.894 83.9547L256.644 68.3864H265.221L259.231 102.32H249.535L245.341 86.5651C245.248 86.0834 245.154 85.5707 245.061 85.027C244.968 84.4677 244.905 83.9392 244.874 83.442H244.735C244.688 83.9703 244.626 84.4602 244.548 84.9108C244.47 85.3612 244.385 85.8583 244.292 86.402L241.495 102.32H232.919L238.908 68.3864H248.93L252.776 83.9088ZM177.521 78.7115C177.397 78.9601 177.233 79.3171 177.031 79.7828C176.845 80.249 176.612 80.8011 176.332 81.4381L172.587 90.1315H178.63L177.778 81.4615C177.715 80.8245 177.668 80.2724 177.637 79.8063C177.606 79.325 177.583 78.9601 177.568 78.7115H177.521ZM143.308 84.6305H146.058C147.285 84.6305 148.218 84.2116 148.855 83.3727C149.492 82.5182 149.926 81.4226 150.159 80.0865C150.408 78.7348 150.362 77.6236 150.02 76.7535C149.678 75.8835 148.894 75.441 147.666 75.4254H144.916L143.308 84.6305Z"/>
</svg>
